<?xml version="1.0" standalone="no"?>
<!DOCTYPE svg PUBLIC "-//W3C//DTD SVG 20010904//EN"
 "http://www.w3.org/TR/2001/REC-SVG-20010904/DTD/svg10.dtd">
<svg version="1.0" xmlns="http://www.w3.org/2000/svg"
 width="180.000000pt" height="89.000000pt" viewBox="0 0 180.000000 89.000000"
 preserveAspectRatio="xMidYMid meet">

<g transform="translate(0.000000,89.000000) scale(0.100000,-0.100000)"
fill="#000000" stroke="none">
<path d="M523 835 c-17 -12 -23 -26 -23 -51 l0 -35 73 2 72 2 3 -196 2 -197
55 0 55 0 2 196 3 197 70 1 70 1 0 45 0 45 -180 3 c-151 2 -184 0 -202 -13z"/>
<path d="M1014 840 c-15 -6 -31 -33 -49 -82 -16 -40 -56 -146 -90 -236 l-63
-163 60 3 60 3 17 45 17 45 94 0 94 0 17 -45 17 -45 110 -3 111 -3 50 82 50
81 37 -58 c20 -33 43 -69 50 -81 13 -20 23 -23 79 -23 l66 0 -59 88 c-32 48
-68 104 -81 124 l-22 38 81 117 81 118 -50 3 c-28 2 -59 -2 -70 -8 -11 -6 -39
-42 -62 -80 -23 -39 -45 -70 -50 -70 -4 0 -29 36 -56 80 l-48 80 -63 0 c-48 0
-61 -3 -56 -12 4 -7 41 -62 82 -121 l74 -108 -53 -82 c-28 -45 -59 -94 -68
-109 -9 -16 -19 -28 -22 -28 -3 0 -44 102 -92 228 l-85 227 -44 2 c-23 1 -53
-2 -64 -7z m79 -203 c15 -46 27 -86 27 -90 0 -4 -27 -7 -60 -7 -41 0 -60 4
-60 12 0 22 51 168 59 168 4 0 19 -37 34 -83z"/>
<path d="M1026 279 c-24 -19 -26 -26 -25 -92 1 -40 4 -60 6 -44 4 26 7 27 64
27 57 0 59 -1 59 -27 0 -14 3 -23 7 -20 3 4 6 35 4 70 -1 52 -6 66 -27 85 -31
27 -54 28 -88 1z m92 -11 c7 -7 12 -29 12 -50 l0 -38 -60 0 -60 0 0 31 c0 50
16 69 58 69 21 0 43 -5 50 -12z"/>
<path d="M1443 288 c-12 -6 -29 -26 -38 -45 -14 -29 -15 -40 -4 -64 22 -55 83
-76 125 -43 18 15 18 15 -3 5 -33 -16 -57 -13 -87 10 -30 24 -35 72 -10 107
17 25 81 31 102 10 9 -9 12 -9 12 0 0 13 -41 33 -63 31 -7 0 -22 -5 -34 -11z"/>
<path d="M1625 288 c-32 -19 -44 -40 -45 -81 -1 -100 136 -120 169 -25 26 73
-58 144 -124 106z m74 -13 c31 -16 41 -33 41 -71 0 -33 -42 -74 -75 -74 -14 0
-37 11 -50 25 -39 38 -29 106 18 125 31 12 34 12 66 -5z"/>
<path d="M652 203 c1 -49 3 -69 5 -45 l4 42 48 0 c51 0 71 12 71 45 0 33 -20
45 -77 45 l-53 0 2 -87z m111 56 c20 -32 1 -49 -53 -49 l-50 0 0 36 0 35 46
-3 c30 -2 51 -9 57 -19z"/>
<path d="M821 203 c1 -63 4 -76 8 -48 5 36 9 40 38 43 27 3 34 -2 54 -37 26
-47 38 -48 14 -1 -15 29 -15 33 -1 49 19 21 21 52 4 69 -7 7 -36 12 -65 12
l-53 0 1 -87z m109 62 c6 -8 9 -23 5 -35 -5 -17 -15 -20 -56 -20 l-49 0 0 35
c0 35 0 35 44 35 26 0 48 -6 56 -15z"/>
<path d="M1192 283 l37 -4 4 -82 3 -82 2 82 2 82 38 4 c20 2 1 4 -43 4 -44 0
-63 -2 -43 -4z"/>
<path d="M1354 205 c0 -49 1 -71 3 -48 2 23 2 64 0 90 -2 26 -3 8 -3 -42z"/>
</g>
</svg>
